<svg width="67" height="52" viewBox="0 0 67 52" fill="none" xmlns="http://www.w3.org/2000/svg">
<path d="M31.3 40.6667L40.8333 31.1333L50.3667 40.6667L55.5 35.5333L45.9667 26L55.5 16.4667L50.3667 11.3333L40.8333 20.8667L31.3 11.3333L26.1667 16.4667L35.7 26L26.1667 35.5333L31.3 40.6667ZM0.5 26L16.45 3.45001C17.1222 2.47223 17.9931 1.70834 19.0625 1.15834C20.1319 0.608344 21.2778 0.333344 22.5 0.333344H59.1667C61.1833 0.333344 62.9097 1.0514 64.3458 2.48751C65.7819 3.92362 66.5 5.65001 66.5 7.66668V44.3333C66.5 46.35 65.7819 48.0764 64.3458 49.5125C62.9097 50.9486 61.1833 51.6667 59.1667 51.6667H22.5C21.2778 51.6667 20.1319 51.3917 19.0625 50.8417C17.9931 50.2917 17.1222 49.5278 16.45 48.55L0.5 26ZM9.48333 26L22.5 44.3333H59.1667V7.66668H22.5L9.48333 26Z" fill="white"/>
</svg>
