<svg width="66" height="52" viewBox="0 0 66 52" fill="none" xmlns="http://www.w3.org/2000/svg">
<path d="M30.8 40.6666L40.3333 31.1333L49.8667 40.6666L55 35.5333L45.4667 26L55 16.4666L49.8667 11.3333L40.3333 20.8666L30.8 11.3333L25.6667 16.4666L35.2 26L25.6667 35.5333L30.8 40.6666ZM0 26L15.95 3.44998C16.6222 2.4722 17.4931 1.70831 18.5625 1.15831C19.6319 0.608313 20.7778 0.333313 22 0.333313H58.6667C60.6833 0.333313 62.4097 1.05137 63.8458 2.48748C65.2819 3.92359 66 5.64998 66 7.66665V44.3333C66 46.35 65.2819 48.0764 63.8458 49.5125C62.4097 50.9486 60.6833 51.6666 58.6667 51.6666H22C20.7778 51.6666 19.6319 51.3916 18.5625 50.8416C17.4931 50.2916 16.6222 49.5278 15.95 48.55L0 26ZM8.98333 26L22 44.3333H58.6667V7.66665H22L8.98333 26Z" fill="white"/>
</svg>
