<svg width="52" height="52" viewBox="0 0 52 52" fill="none" xmlns="http://www.w3.org/2000/svg">
<path d="M51.6667 29.6666H0.333374V22.3333H51.6667V29.6666ZM26 0.333313C27.945 0.333313 29.8102 1.10593 31.1855 2.4812C32.5608 3.85646 33.3334 5.72172 33.3334 7.66665C33.3334 9.61157 32.5608 11.4768 31.1855 12.8521C29.8102 14.2274 27.945 15 26 15C24.0551 15 22.1899 14.2274 20.8146 12.8521C19.4393 11.4768 18.6667 9.61157 18.6667 7.66665C18.6667 5.72172 19.4393 3.85646 20.8146 2.4812C22.1899 1.10593 24.0551 0.333313 26 0.333313ZM26 37C27.945 37 29.8102 37.7726 31.1855 39.1479C32.5608 40.5231 33.3334 42.3884 33.3334 44.3333C33.3334 46.2782 32.5608 48.1435 31.1855 49.5188C29.8102 50.894 27.945 51.6666 26 51.6666C24.0551 51.6666 22.1899 50.894 20.8146 49.5188C19.4393 48.1435 18.6667 46.2782 18.6667 44.3333C18.6667 42.3884 19.4393 40.5231 20.8146 39.1479C22.1899 37.7726 24.0551 37 26 37Z" fill="white"/>
</svg>
